<?xml version="1.0" encoding="UTF-8" standalone="no"?>
<!-- Created with Inkscape (http://www.inkscape.org/) -->

<svg
   xmlns:dc="http://purl.org/dc/elements/1.1/"
   xmlns:cc="http://creativecommons.org/ns#"
   xmlns:rdf="http://www.w3.org/1999/02/22-rdf-syntax-ns#"
   xmlns:svg="http://www.w3.org/2000/svg"
   xmlns="http://www.w3.org/2000/svg"
   xmlns:sodipodi="http://sodipodi.sourceforge.net/DTD/sodipodi-0.dtd"
   xmlns:inkscape="http://www.inkscape.org/namespaces/inkscape"
   width="59.259895mm"
   height="20.138649mm"
   viewBox="0 0 209.97601 71.357416"
   id="svg2"
   version="1.1"
   inkscape:version="0.91 r13725"
   sodipodi:docname="logo.svg">
  <defs
     id="defs4" />
  <sodipodi:namedview
     id="base"
     pagecolor="#ffffff"
     bordercolor="#666666"
     borderopacity="1.0"
     inkscape:pageopacity="0.0"
     inkscape:pageshadow="2"
     inkscape:zoom="0.49497475"
     inkscape:cx="101.65344"
     inkscape:cy="-209.70567"
     inkscape:document-units="px"
     inkscape:current-layer="layer1"
     showgrid="false"
     showguides="true"
     inkscape:guide-bbox="true"
     inkscape:window-width="1366"
     inkscape:window-height="714"
     inkscape:window-x="0"
     inkscape:window-y="25"
     inkscape:window-maximized="1"
     fit-margin-top="0"
     fit-margin-left="0"
     fit-margin-right="0"
     fit-margin-bottom="0" />
  <metadata
     id="metadata7">
    <rdf:RDF>
      <cc:Work
         rdf:about="">
        <dc:format>image/svg+xml</dc:format>
        <dc:type
           rdf:resource="http://purl.org/dc/dcmitype/StillImage" />
        <dc:title></dc:title>
      </cc:Work>
    </rdf:RDF>
  </metadata>
  <g
     inkscape:label="Layer 1"
     inkscape:groupmode="layer"
     id="layer1"
     transform="translate(-187.18511,-84.772629)">
    <g
       style="font-style:normal;font-variant:normal;font-weight:500;font-stretch:normal;font-size:40px;line-height:125%;font-family:'Century Schoolbook L';-inkscape-font-specification:'Century Schoolbook L Medium';letter-spacing:0px;word-spacing:0px;fill:#000000;fill-opacity:1;stroke:none;stroke-width:1px;stroke-linecap:butt;stroke-linejoin:miter;stroke-opacity:1"
       id="flowRoot4163" />
    <g
       id="g4311"
       transform="matrix(0.21759545,0,0,0.21759545,194.37188,29.838928)"
       inkscape:export-xdpi="90"
       inkscape:export-ydpi="90">
      <rect
         y="323.03207"
         x="38.385796"
         height="242.43661"
         width="32.324883"
         id="rect4138"
         style="fill:#ffbf00;fill-opacity:1" />
      <rect
         transform="matrix(0.42971658,0.90296382,-0.90296382,0.42971658,0,0)"
         y="-51.124348"
         x="303.91797"
         height="232.33508"
         width="32.324883"
         id="rect4138-3"
         style="fill:#ffbf00;fill-opacity:1" />
      <rect
         transform="matrix(0.4255733,-0.90492396,0.90492396,0.4255733,0,0)"
         y="267.3652"
         x="-186.06609"
         height="232.33508"
         width="32.324883"
         id="rect4138-6"
         style="fill:#ffbf00;fill-opacity:1" />
      <g
         transform="matrix(1.9097425,0,0,1.9097425,-194.44013,-855.17784)"
         id="text4186"
         style="font-style:normal;font-variant:normal;font-weight:bold;font-stretch:normal;font-size:180px;line-height:125%;font-family:FreeSerif;-inkscape-font-specification:'FreeSerif Bold';letter-spacing:0px;word-spacing:0px;fill:#ffbf00;fill-opacity:1;stroke:none;stroke-width:1px;stroke-linecap:butt;stroke-linejoin:miter;stroke-opacity:1">
        <path
           style="fill:#ffbf00;fill-opacity:1"
           inkscape:connector-curvature="0"
           id="path4191"
           d="m 255.76167,653.61555 q 0,5.58 -1.8,10.26 -1.62,4.68 -4.14,7.74 -2.34,2.88 -6.48,5.4 -3.96,2.52 -7.56,3.96 -3.42,1.44 -8.28,3.06 l 36.18,51.3 q 2.7,3.42 7.38,3.42 l 0,4.5 -36.9,0 -37.26,-56.34 -4.86,0 0,35.28 q 0,9.54 2.7,12.42 2.7,2.88 13.14,4.14 l 0,4.5 -60.84,0 0,-4.5 q 10.62,-1.26 13.14,-3.96 2.7,-2.7 2.7,-12.6 l 0,-79.56 q 0,-9.72 -3.06,-12.78 -2.88,-3.06 -12.78,-3.78 l 0,-4.5 57.96,0 q 24.66,0 37.62,8.28 13.14,8.28 13.14,23.76 z m -54,-25.92 q -9.72,0 -9.72,7.56 l 0,45.9 q 19.26,-0.36 26.1,-5.58 6.84,-5.22 6.84,-21.24 0,-14.22 -5.4,-20.34 -5.4,-6.3 -17.82,-6.3 z" />
      </g>
      <g
         transform="matrix(2.4532096,0,0,2.4532096,-338.29886,-1312.7442)"
         id="text4276"
         style="font-style:normal;font-variant:normal;font-weight:bold;font-stretch:normal;font-size:40px;line-height:125%;font-family:FreeSerif;-inkscape-font-specification:'FreeSerif Bold';letter-spacing:0px;word-spacing:0px;fill:#ffbf00;fill-opacity:1;stroke:none;stroke-width:1px;stroke-linecap:butt;stroke-linejoin:miter;stroke-opacity:1">
        <path
           style="fill:#ffbf00;fill-opacity:1"
           inkscape:connector-curvature="0"
           id="path4281"
           d="m 277.48089,753.65856 q 0.04,1.08 0.16,1.96 0.12,0.84 0.4,1.96 0.32,1.08 0.8,1.8 0.52,0.72 1.36,1.24 0.88,0.52 2.04,0.52 1.28,0 2.32,-0.6 1.04,-0.6 2.24,-2.08 l 0.96,0.56 q -1.96,2.8 -3.68,3.92 -1.68,1.08 -4.12,1.08 -3.72,0 -6,-2.64 -2.24,-2.68 -2.24,-7.04 0,-4.4 2.28,-7.08 2.32,-2.72 6.08,-2.72 6.84,0 7.48,9.12 l -10.08,0 z m 5.16,-2.08 q -0.04,-1.28 -0.08,-1.96 -0.04,-0.68 -0.2,-1.52 -0.16,-0.88 -0.44,-1.28 -0.24,-0.44 -0.72,-0.72 -0.44,-0.32 -1.12,-0.32 -1.48,0 -2.12,1.4 -0.6,1.4 -0.68,5 l 5.36,0 0,-0.6 z" />
        <path
           style="fill:#ffbf00;fill-opacity:1"
           inkscape:connector-curvature="0"
           id="path4283"
           d="m 299.82464,747.21856 q -1.08,0 -2.24,0.92 -1.12,0.92 -1.12,1.4 l 0,10.68 q 0,1.16 0.4,1.64 0.4,0.48 1.44,0.64 l 0,0.96 -9.52,0 0,-0.96 q 1.32,-0.24 1.72,-0.68 0.4,-0.48 0.4,-1.72 l 0,-11.76 q 0,-1.24 -0.4,-1.72 -0.4,-0.48 -1.72,-0.64 l 0,-0.96 7.56,0 0,3 q 2.2,-3.48 5.88,-3.48 1.88,0 3.04,0.8 1.16,0.8 2.08,2.68 1.56,-1.92 2.84,-2.68 1.32,-0.8 3.04,-0.8 2.48,0 3.92,1.56 1.48,1.52 1.48,4.08 l 0,10.04 q 0,1.28 0.4,1.76 0.44,0.44 1.6,0.52 l 0,0.96 -9.52,0 0,-0.96 q 1.16,-0.08 1.56,-0.56 0.4,-0.48 0.4,-1.72 l 0,-9.68 q 0,-1.76 -0.52,-2.52 -0.48,-0.8 -1.6,-0.8 -1.04,0 -2.24,0.96 -1.16,0.92 -1.16,1.36 l 0,10.68 q 0,1.16 0.4,1.68 0.44,0.48 1.48,0.6 l 0,0.96 -9.36,0 0,-0.96 q 1.12,-0.08 1.52,-0.56 0.4,-0.48 0.4,-1.72 l 0,-9.68 q 0,-1.8 -0.52,-2.56 -0.48,-0.76 -1.64,-0.76 z" />
        <path
           style="fill:#ffbf00;fill-opacity:1"
           inkscape:connector-curvature="0"
           id="path4285"
           d="m 330.99526,744.53856 q 3.88,0 6.44,2.8 2.56,2.76 2.56,6.96 0,4.16 -2.56,6.96 -2.56,2.76 -6.44,2.76 -3.92,0 -6.48,-2.76 -2.56,-2.8 -2.56,-7.08 0,-4.08 2.6,-6.84 2.64,-2.8 6.44,-2.8 z m 0.04,1.24 q -1.84,0 -2.52,1.92 -0.68,1.92 -0.68,7.2 0,4.4 0.68,6.16 0.72,1.72 2.48,1.72 1.76,0 2.44,-1.8 0.68,-1.84 0.68,-6.44 0,-4.92 -0.68,-6.84 -0.68,-1.92 -2.4,-1.92 z" />
        <path
           style="fill:#ffbf00;fill-opacity:1"
           inkscape:connector-curvature="0"
           id="path4287"
           d="m 354.59339,763.97856 0,-2.6 q -1.4,1.48 -2.56,2.08 -1.16,0.56 -2.76,0.56 -3.16,0 -5.2,-2.64 -2.04,-2.68 -2.04,-6.76 0,-4.36 2.16,-7.2 2.2,-2.88 5.52,-2.88 1.36,0 2.4,0.56 1.08,0.52 2.36,1.92 l 0,-7.32 q 0,-1.4 -0.52,-1.76 -0.52,-0.4 -2.52,-0.56 l 0,-0.96 8.6,0 0,23 q 0,1.28 0.48,1.76 0.52,0.48 1.88,0.56 l 0,0.92 -2.48,0.32 q -3.28,0.44 -5.32,1 z m -3.52,-2.2 q 1.32,0 2.36,-1.12 1.04,-1.16 1.04,-1.68 l 0,-9.72 q -0.4,-1.12 -1.28,-1.8 -0.84,-0.68 -1.84,-0.68 -3.4,0 -3.4,7.52 0,7.48 3.12,7.48 z" />
        <path
           style="fill:#ffbf00;fill-opacity:1"
           inkscape:connector-curvature="0"
           id="path4289"
           d="m 369.51214,753.65856 q 0.04,1.08 0.16,1.96 0.12,0.84 0.4,1.96 0.32,1.08 0.8,1.8 0.52,0.72 1.36,1.24 0.88,0.52 2.04,0.52 1.28,0 2.32,-0.6 1.04,-0.6 2.24,-2.08 l 0.96,0.56 q -1.96,2.8 -3.68,3.92 -1.68,1.08 -4.12,1.08 -3.72,0 -6,-2.64 -2.24,-2.68 -2.24,-7.04 0,-4.4 2.28,-7.08 2.32,-2.72 6.08,-2.72 6.84,0 7.48,9.12 l -10.08,0 z m 5.16,-2.08 q -0.04,-1.28 -0.08,-1.96 -0.04,-0.68 -0.2,-1.52 -0.16,-0.88 -0.44,-1.28 -0.24,-0.44 -0.72,-0.72 -0.44,-0.32 -1.12,-0.32 -1.48,0 -2.12,1.4 -0.6,1.4 -0.68,5 l 5.36,0 0,-0.6 z" />
        <path
           style="fill:#ffbf00;fill-opacity:1"
           inkscape:connector-curvature="0"
           id="path4291"
           d="m 388.26151,736.41856 0,23.68 q 0,2.36 1.96,2.4 l 0,0.96 -9.64,0 0,-0.96 q 2.12,-0.2 2.12,-2.4 l 0,-20.4 q 0,-2.12 -2.12,-2.32 l 0,-0.96 7.68,0 z" />
        <path
           style="fill:#ffbf00;fill-opacity:1"
           inkscape:connector-curvature="0"
           id="path4293"
           d="m 399.59526,745.01856 0,15.2 q 0,1.12 0.44,1.64 0.44,0.48 1.52,0.64 l 0,0.96 -9.64,0 0,-0.96 q 1.36,-0.32 1.72,-0.72 0.4,-0.44 0.4,-1.68 l 0,-11.76 q 0,-1.24 -0.4,-1.64 -0.4,-0.44 -1.72,-0.72 l 0,-0.96 7.68,0 z m -5,-8.28 q 0.92,-0.92 2.2,-0.92 1.28,0 2.16,0.92 0.92,0.92 0.92,2.2 0,1.32 -0.92,2.2 -0.88,0.88 -2.2,0.88 -1.32,0 -2.2,-0.88 -0.88,-0.88 -0.88,-2.24 0,-1.28 0.92,-2.16 z" />
        <path
           style="fill:#ffbf00;fill-opacity:1"
           inkscape:connector-curvature="0"
           id="path4295"
           d="m 414.12339,747.21856 q -1.12,0 -2.28,0.96 -1.16,0.92 -1.16,1.36 l 0,10.68 q 0,1.12 0.4,1.64 0.44,0.48 1.56,0.64 l 0,0.96 -9.64,0 0,-0.96 q 1.36,-0.28 1.72,-0.72 0.4,-0.44 0.4,-1.68 l 0,-11.76 q 0,-1.24 -0.4,-1.68 -0.4,-0.48 -1.72,-0.68 l 0,-0.96 7.64,0 0,3 q 2.2,-3.48 5.72,-3.48 2.48,0 3.92,1.56 1.48,1.52 1.48,4.08 l 0,10.04 q 0,1.28 0.4,1.76 0.4,0.44 1.56,0.52 l 0,0.96 -9.4,0 0,-0.96 q 1,-0.12 1.44,-0.64 0.44,-0.52 0.44,-1.64 l 0,-9.68 q 0,-3.32 -2.08,-3.32 z" />
        <path
           style="fill:#ffbf00;fill-opacity:1"
           inkscape:connector-curvature="0"
           id="path4297"
           d="m 430.79089,757.05856 q -4.96,-2.08 -4.96,-6.08 0,-2.84 2.28,-4.64 2.28,-1.8 5.84,-1.8 2.04,0 4.48,0.88 l 5.2,0 0,2.12 -3.24,0 q 1.6,1.6 1.6,3.92 0,0.96 -0.32,1.92 -0.32,0.92 -1.08,1.88 -0.72,0.92 -2.16,1.48 -1.44,0.56 -3.4,0.56 l -1.8,-0.04 q -1.2,0 -1.96,0.6 -0.76,0.56 -0.76,1.48 0,0.84 0.8,1.12 0.8,0.28 3.2,0.28 l 2.6,0 q 3.08,0 4.8,1.32 1.76,1.28 1.76,3.6 0,2.96 -2.6,4.48 -2.56,1.56 -7.56,1.56 -3.8,0 -5.92,-1 -2.12,-0.96 -2.12,-2.68 0,-2.44 3.84,-3 -1.92,-0.68 -2.6,-1.36 -0.68,-0.68 -0.68,-1.92 0,-3.04 4.76,-4.68 z m 6.52,8.48 -6.92,0 q -0.84,0.68 -1.12,1.12 -0.28,0.44 -0.28,1.08 0,2.68 5.36,2.68 2.96,0 4.56,-0.76 1.6,-0.72 1.6,-2.12 0,-2 -3.2,-2 z m -1.36,-18.52 q -0.6,-1.24 -2,-1.24 -1.4,0 -2.04,1.24 -0.6,1.2 -0.6,4 0,2.8 0.6,4 0.6,1.16 2.04,1.16 1.4,0 2,-1.16 0.64,-1.2 0.64,-4 0,-2.8 -0.64,-4 z" />
        <path
           style="fill:#ffbf00;fill-opacity:1"
           inkscape:connector-curvature="0"
           id="path4299"
           d="m 459.06901,759.61856 0,-19.36 q 0,-1.52 -0.8,-2.08 -0.76,-0.6 -2.92,-0.76 l 0,-1 14,0 0,1 q -2.2,0.08 -3,0.68 -0.8,0.6 -0.8,2.16 l 0,19.36 q 0,1.56 0.76,2.12 0.76,0.56 3.04,0.72 l 0,1 -14,0 0,-1 q 2.24,-0.2 2.96,-0.76 0.76,-0.56 0.76,-2.08 z" />
        <path
           style="fill:#ffbf00;fill-opacity:1"
           inkscape:connector-curvature="0"
           id="path4301"
           d="m 482.01401,747.21856 q -1.12,0 -2.28,0.96 -1.16,0.92 -1.16,1.36 l 0,10.68 q 0,1.12 0.4,1.64 0.44,0.48 1.56,0.64 l 0,0.96 -9.64,0 0,-0.96 q 1.36,-0.28 1.72,-0.72 0.4,-0.44 0.4,-1.68 l 0,-11.76 q 0,-1.24 -0.4,-1.68 -0.4,-0.48 -1.72,-0.68 l 0,-0.96 7.64,0 0,3 q 2.2,-3.48 5.72,-3.48 2.48,0 3.92,1.56 1.48,1.52 1.48,4.08 l 0,10.04 q 0,1.28 0.4,1.76 0.4,0.44 1.56,0.52 l 0,0.96 -9.4,0 0,-0.96 q 1,-0.12 1.44,-0.64 0.44,-0.52 0.44,-1.64 l 0,-9.68 q 0,-3.32 -2.08,-3.32 z" />
        <path
           style="fill:#ffbf00;fill-opacity:1"
           inkscape:connector-curvature="0"
           id="path4303"
           d="m 508.45089,759.09856 0.72,0.72 q -1.76,2.24 -3.56,3.24 -1.76,0.96 -4.08,0.96 -3.72,0 -6.16,-2.68 -2.4,-2.68 -2.4,-6.8 0,-4.32 2.68,-7.16 2.68,-2.84 6.76,-2.84 2.64,0 4.4,1.28 1.8,1.24 1.8,3.12 0,1.16 -0.72,1.84 -0.72,0.68 -2,0.68 -2.2,0 -2.24,-2.88 0,-1.68 -0.2,-2.04 -0.4,-0.76 -1.48,-0.76 -1.56,0 -2.48,1.8 -0.88,1.76 -0.88,4.84 0,4.08 1.52,6.52 1.56,2.4 4.16,2.4 1.24,0 2.12,-0.48 0.92,-0.52 2.04,-1.76 z" />
        <path
           style="fill:#ffbf00;fill-opacity:1"
           inkscape:connector-curvature="0"
           id="path4305"
           d="m 514.39276,757.21856 q 1.4,0 2.4,1.04 1,1 1,2.4 0,1.4 -1,2.36 -1,0.96 -2.44,0.96 -1.4,0 -2.36,-0.96 -0.96,-1 -0.96,-2.44 0,-1.36 1,-2.36 1,-1 2.36,-1 z" />
      </g>
      <text
         sodipodi:linespacing="125%"
         id="text4307"
         y="483.90396"
         x="297.66138"
         style="font-style:normal;font-variant:normal;font-weight:bold;font-stretch:normal;font-size:93.75026703px;line-height:125%;font-family:FreeSerif;-inkscape-font-specification:'FreeSerif Bold';letter-spacing:0px;word-spacing:0px;fill:#ffbf00;fill-opacity:1;stroke:none;stroke-width:1px;stroke-linecap:butt;stroke-linejoin:miter;stroke-opacity:1"
         xml:space="preserve"><tspan
           y="483.90396"
           x="297.66138"
           id="tspan4309"
           sodipodi:role="line">ockville</tspan></text>
    </g>
  </g>
</svg>
