<?xml version="1.0" encoding="UTF-8" standalone="no"?>
<!-- Created with Inkscape (http://www.inkscape.org/) -->
<svg id="svg2" xmlns:rdf="http://www.w3.org/1999/02/22-rdf-syntax-ns#" xmlns="http://www.w3.org/2000/svg" height="32.754" width="43.928" version="1.1" xmlns:cc="http://creativecommons.org/ns#" xmlns:dc="http://purl.org/dc/elements/1.1/" viewBox="0 0 43.928142 32.754365">
 <metadata id="metadata7">
  <rdf:RDF>
   <cc:Work rdf:about="">
    <dc:format>image/svg+xml</dc:format>
    <dc:type rdf:resource="http://purl.org/dc/dcmitype/StillImage"/>
    <dc:title/>
   </cc:Work>
  </rdf:RDF>
 </metadata>
 <g id="layer1" transform="translate(-190.22 -193.87)" fill="#ffbf00">
  <g id="g4391" transform="matrix(.48091 0 0 .48091 100.2 153.1)">
   <rect id="rect4138" height="52.753" width="7.0337" y="100.13" x="202.72"/>
   <rect id="rect4138-3" transform="rotate(64.55)" height="50.555" width="7.0337" y="-173.81" x="176.6"/>
   <rect id="rect4138-6" transform="matrix(.42557 -.90492 .90492 .42557 0 0)" height="50.555" width="7.0337" y="246.77" x="15.23"/>
   <g id="text4186" transform="matrix(.41555 0 0 .41555 152.06 -156.24)">
    <path id="path4191" d="m255.76 653.62q0 5.58-1.8 10.26-1.62 4.68-4.14 7.74-2.34 2.88-6.48 5.4-3.96 2.52-7.56 3.96-3.42 1.44-8.28 3.06l36.18 51.3q2.7 3.42 7.38 3.42v4.5h-36.9l-37.26-56.34h-4.86v35.28q0 9.54 2.7 12.42t13.14 4.14v4.5h-60.84v-4.5q10.62-1.26 13.14-3.96 2.7-2.7 2.7-12.6v-79.56q0-9.72-3.06-12.78-2.88-3.06-12.78-3.78v-4.5h57.96q24.66 0 37.62 8.28 13.14 8.28 13.14 23.76zm-54-25.92q-9.72 0-9.72 7.56v45.9q19.26-0.36 26.1-5.58t6.84-21.24q0-14.22-5.4-20.34-5.4-6.3-17.82-6.3z" fill="#ffbf00"/>
   </g>
  </g>
  <g id="text4276" transform="matrix(.53381 0 0 .53381 120.76 -255.81)">
   <path id="path4281" d="m277.48 753.66q0.04 1.08 0.16 1.96 0.12 0.84 0.4 1.96 0.32 1.08 0.8 1.8 0.52 0.72 1.36 1.24 0.88 0.52 2.04 0.52 1.28 0 2.32-0.6t2.24-2.08l0.96 0.56q-1.96 2.8-3.68 3.92-1.68 1.08-4.12 1.08-3.72 0-6-2.64-2.24-2.68-2.24-7.04 0-4.4 2.28-7.08 2.32-2.72 6.08-2.72 6.84 0 7.48 9.12h-10.08zm5.16-2.08q-0.04-1.28-0.08-1.96t-0.2-1.52q-0.16-0.88-0.44-1.28-0.24-0.44-0.72-0.72-0.44-0.32-1.12-0.32-1.48 0-2.12 1.4-0.6 1.4-0.68 5h5.36v-0.6z"/>
   <path id="path4283" d="m299.82 747.22q-1.08 0-2.24 0.92-1.12 0.92-1.12 1.4v10.68q0 1.16 0.4 1.64t1.44 0.64v0.96h-9.52v-0.96q1.32-0.24 1.72-0.68 0.4-0.48 0.4-1.72v-11.76q0-1.24-0.4-1.72t-1.72-0.64v-0.96h7.56v3q2.2-3.48 5.88-3.48 1.88 0 3.04 0.8t2.08 2.68q1.56-1.92 2.84-2.68 1.32-0.8 3.04-0.8 2.48 0 3.92 1.56 1.48 1.52 1.48 4.08v10.04q0 1.28 0.4 1.76 0.44 0.44 1.6 0.52v0.96h-9.52v-0.96q1.16-0.08 1.56-0.56t0.4-1.72v-9.68q0-1.76-0.52-2.52-0.48-0.8-1.6-0.8-1.04 0-2.24 0.96-1.16 0.92-1.16 1.36v10.68q0 1.16 0.4 1.68 0.44 0.48 1.48 0.6v0.96h-9.36v-0.96q1.12-0.08 1.52-0.56t0.4-1.72v-9.68q0-1.8-0.52-2.56-0.48-0.76-1.64-0.76z"/>
   <path id="path4285" d="m331 744.54q3.88 0 6.44 2.8 2.56 2.76 2.56 6.96 0 4.16-2.56 6.96-2.56 2.76-6.44 2.76-3.92 0-6.48-2.76-2.56-2.8-2.56-7.08 0-4.08 2.6-6.84 2.64-2.8 6.44-2.8zm0.04 1.24q-1.84 0-2.52 1.92t-0.68 7.2q0 4.4 0.68 6.16 0.72 1.72 2.48 1.72t2.44-1.8q0.68-1.84 0.68-6.44 0-4.92-0.68-6.84t-2.4-1.92z"/>
   <path id="path4287" d="m354.59 763.98v-2.6q-1.4 1.48-2.56 2.08-1.16 0.56-2.76 0.56-3.16 0-5.2-2.64-2.04-2.68-2.04-6.76 0-4.36 2.16-7.2 2.2-2.88 5.52-2.88 1.36 0 2.4 0.56 1.08 0.52 2.36 1.92v-7.32q0-1.4-0.52-1.76-0.52-0.4-2.52-0.56v-0.96h8.6v23q0 1.28 0.48 1.76 0.52 0.48 1.88 0.56v0.92l-2.48 0.32q-3.28 0.44-5.32 1zm-3.52-2.2q1.32 0 2.36-1.12 1.04-1.16 1.04-1.68v-9.72q-0.4-1.12-1.28-1.8-0.84-0.68-1.84-0.68-3.4 0-3.4 7.52 0 7.48 3.12 7.48z"/>
   <path id="path4289" d="m369.51 753.66q0.04 1.08 0.16 1.96 0.12 0.84 0.4 1.96 0.32 1.08 0.8 1.8 0.52 0.72 1.36 1.24 0.88 0.52 2.04 0.52 1.28 0 2.32-0.6t2.24-2.08l0.96 0.56q-1.96 2.8-3.68 3.92-1.68 1.08-4.12 1.08-3.72 0-6-2.64-2.24-2.68-2.24-7.04 0-4.4 2.28-7.08 2.32-2.72 6.08-2.72 6.84 0 7.48 9.12h-10.08zm5.16-2.08q-0.04-1.28-0.08-1.96t-0.2-1.52q-0.16-0.88-0.44-1.28-0.24-0.44-0.72-0.72-0.44-0.32-1.12-0.32-1.48 0-2.12 1.4-0.6 1.4-0.68 5h5.36v-0.6z"/>
   <path id="path4291" d="m388.26 736.42v23.68q0 2.36 1.96 2.4v0.96h-9.64v-0.96q2.12-0.2 2.12-2.4v-20.4q0-2.12-2.12-2.32v-0.96h7.68z"/>
   <path id="path4293" d="m399.6 745.02v15.2q0 1.12 0.44 1.64 0.44 0.48 1.52 0.64v0.96h-9.64v-0.96q1.36-0.32 1.72-0.72 0.4-0.44 0.4-1.68v-11.76q0-1.24-0.4-1.64-0.4-0.44-1.72-0.72v-0.96h7.68zm-5-8.28q0.92-0.92 2.2-0.92t2.16 0.92q0.92 0.92 0.92 2.2 0 1.32-0.92 2.2-0.88 0.88-2.2 0.88t-2.2-0.88-0.88-2.24q0-1.28 0.92-2.16z"/>
   <path id="path4295" d="m414.12 747.22q-1.12 0-2.28 0.96-1.16 0.92-1.16 1.36v10.68q0 1.12 0.4 1.64 0.44 0.48 1.56 0.64v0.96h-9.64v-0.96q1.36-0.28 1.72-0.72 0.4-0.44 0.4-1.68v-11.76q0-1.24-0.4-1.68-0.4-0.48-1.72-0.68v-0.96h7.64v3q2.2-3.48 5.72-3.48 2.48 0 3.92 1.56 1.48 1.52 1.48 4.08v10.04q0 1.28 0.4 1.76 0.4 0.44 1.56 0.52v0.96h-9.4v-0.96q1-0.12 1.44-0.64t0.44-1.64v-9.68q0-3.32-2.08-3.32z"/>
   <path id="path4297" d="m430.79 757.06q-4.96-2.08-4.96-6.08 0-2.84 2.28-4.64t5.84-1.8q2.04 0 4.48 0.88h5.2v2.12h-3.24q1.6 1.6 1.6 3.92 0 0.96-0.32 1.92-0.32 0.92-1.08 1.88-0.72 0.92-2.16 1.48t-3.4 0.56l-1.8-0.04q-1.2 0-1.96 0.6-0.76 0.56-0.76 1.48 0 0.84 0.8 1.12t3.2 0.28h2.6q3.08 0 4.8 1.32 1.76 1.28 1.76 3.6 0 2.96-2.6 4.48-2.56 1.56-7.56 1.56-3.8 0-5.92-1-2.12-0.96-2.12-2.68 0-2.44 3.84-3-1.92-0.68-2.6-1.36t-0.68-1.92q0-3.04 4.76-4.68zm6.52 8.48h-6.92q-0.84 0.68-1.12 1.12t-0.28 1.08q0 2.68 5.36 2.68 2.96 0 4.56-0.76 1.6-0.72 1.6-2.12 0-2-3.2-2zm-1.36-18.52q-0.6-1.24-2-1.24t-2.04 1.24q-0.6 1.2-0.6 4t0.6 4q0.6 1.16 2.04 1.16 1.4 0 2-1.16 0.64-1.2 0.64-4t-0.64-4z"/>
   <path id="path4299" d="m459.07 759.62v-19.36q0-1.52-0.8-2.08-0.76-0.6-2.92-0.76v-1h14v1q-2.2 0.08-3 0.68t-0.8 2.16v19.36q0 1.56 0.76 2.12t3.04 0.72v1h-14v-1q2.24-0.2 2.96-0.76 0.76-0.56 0.76-2.08z"/>
   <path id="path4301" d="m482.01 747.22q-1.12 0-2.28 0.96-1.16 0.92-1.16 1.36v10.68q0 1.12 0.4 1.64 0.44 0.48 1.56 0.64v0.96h-9.64v-0.96q1.36-0.28 1.72-0.72 0.4-0.44 0.4-1.68v-11.76q0-1.24-0.4-1.68-0.4-0.48-1.72-0.68v-0.96h7.64v3q2.2-3.48 5.72-3.48 2.48 0 3.92 1.56 1.48 1.52 1.48 4.08v10.04q0 1.28 0.4 1.76 0.4 0.44 1.56 0.52v0.96h-9.4v-0.96q1-0.12 1.44-0.64t0.44-1.64v-9.68q0-3.32-2.08-3.32z"/>
   <path id="path4303" d="m508.45 759.1 0.72 0.72q-1.76 2.24-3.56 3.24-1.76 0.96-4.08 0.96-3.72 0-6.16-2.68-2.4-2.68-2.4-6.8 0-4.32 2.68-7.16t6.76-2.84q2.64 0 4.4 1.28 1.8 1.24 1.8 3.12 0 1.16-0.72 1.84t-2 0.68q-2.2 0-2.24-2.88 0-1.68-0.2-2.04-0.4-0.76-1.48-0.76-1.56 0-2.48 1.8-0.88 1.76-0.88 4.84 0 4.08 1.52 6.52 1.56 2.4 4.16 2.4 1.24 0 2.12-0.48 0.92-0.52 2.04-1.76z"/>
   <path id="path4305" d="m514.39 757.22q1.4 0 2.4 1.04 1 1 1 2.4t-1 2.36-2.44 0.96q-1.4 0-2.36-0.96-0.96-1-0.96-2.44 0-1.36 1-2.36t2.36-1z"/>
  </g>
  <text id="text4307" style="word-spacing:0px;letter-spacing:0px" font-weight="bold" xml:space="preserve" font-size="20.4px" line-height="125%" y="135.13423" x="259.14163" font-family="FreeSerif"><tspan id="tspan4309" x="259.14163" y="135.13423">ockville</tspan></text>
 </g>
</svg>
